<svg xmlns="http://www.w3.org/2000/svg" version="1.1" xmlns:xlink="http://www.w3.org/1999/xlink" xmlns:svgjs="http://svgjs.dev/svgjs" width="1440" height="560" preserveAspectRatio="none" viewBox="0 0 1440 560"><g mask="url(&quot;#SvgjsMask1159&quot;)" fill="none"><rect width="1440" height="560" x="0" y="0" fill="url(&quot;#SvgjsLinearGradient1160&quot;)"></rect><path d="M-42.1 377.64L-42.1 377.64" stroke="rgba(0, 0, 0, 1)" stroke-width="1.5"></path><path d="M-42.1 377.64L42.11 359.41" stroke="rgba(0, 0, 0, 1)" stroke-width="1.5"></path><path d="M-42.1 377.64L-44.72 524.32" stroke="rgba(0, 0, 0, 1)" stroke-width="1.5"></path><path d="M-42.1 377.64L201.28 359.28" stroke="rgba(0, 0, 0, 1)" stroke-width="1.5"></path><path d="M-44.72 524.32L-44.72 524.32" stroke="rgba(0, 0, 0, 1)" stroke-width="1.5"></path><path d="M-44.72 524.32L41.22 643.64" stroke="rgba(0, 0, 0, 1)" stroke-width="1.5"></path><path d="M-44.72 524.32L-51.73 675.18" stroke="rgba(0, 0, 0, 1)" stroke-width="1.5"></path><path d="M-44.72 524.32L42.11 359.41" stroke="rgba(0, 0, 0, 1)" stroke-width="1.5"></path><path d="M-44.72 524.32L217.83 537.48" stroke="rgba(0, 0, 0, 1)" stroke-width="1.5"></path><path d="M-44.72 524.32L201.28 359.28" stroke="rgba(0, 0, 0, 1)" stroke-width="1.5"></path><path d="M-51.73 675.18L-51.73 675.18" stroke="rgba(0, 0, 0, 1)" stroke-width="1.5"></path><path d="M-51.73 675.18L41.22 643.64" stroke="rgba(0, 0, 0, 1)" stroke-width="1.5"></path><path d="M42.11 359.41L42.11 359.41" stroke="rgba(0, 0, 0, 1)" stroke-width="1.5"></path><path d="M42.11 359.41L201.28 359.28" stroke="rgba(0, 0, 0, 1)" stroke-width="1.5"></path><path d="M42.11 359.41L217.83 537.48" stroke="rgba(0, 0, 0, 1)" stroke-width="1.5"></path><path d="M42.11 359.41L41.22 643.64" stroke="rgba(0, 0, 0, 1)" stroke-width="1.5"></path><path d="M41.22 643.64L41.22 643.64" stroke="rgba(0, 0, 0, 1)" stroke-width="1.5"></path><path d="M201.28 359.28L201.28 359.28" stroke="rgba(0, 0, 0, 1)" stroke-width="1.5"></path><path d="M201.28 359.28L378.11 381.8" stroke="rgba(0, 0, 0, 1)" stroke-width="1.5"></path><path d="M201.28 359.28L217.83 537.48" stroke="rgba(0, 0, 0, 1)" stroke-width="1.5"></path><path d="M217.83 537.48L217.83 537.48" stroke="rgba(0, 0, 0, 1)" stroke-width="1.5"></path><path d="M217.83 537.48L250.98 696.38" stroke="rgba(0, 0, 0, 1)" stroke-width="1.5"></path><path d="M250.98 696.38L250.98 696.38" stroke="rgba(0, 0, 0, 1)" stroke-width="1.5"></path><path d="M250.98 696.38L399.4 672.31" stroke="rgba(0, 0, 0, 1)" stroke-width="1.5"></path><path d="M250.98 696.38L41.22 643.64" stroke="rgba(0, 0, 0, 1)" stroke-width="1.5"></path><path d="M250.98 696.38L504.24 647.43" stroke="rgba(0, 0, 0, 1)" stroke-width="1.5"></path><path d="M250.98 696.38L-51.73 675.18" stroke="rgba(0, 0, 0, 1)" stroke-width="1.5"></path><path d="M250.98 696.38L378.11 381.8" stroke="rgba(0, 0, 0, 1)" stroke-width="1.5"></path><path d="M378.11 381.8L378.11 381.8" stroke="rgba(0, 0, 0, 1)" stroke-width="1.5"></path><path d="M378.11 381.8L549.99 343.96" stroke="rgba(0, 0, 0, 1)" stroke-width="1.5"></path><path d="M378.11 381.8L550.2 509.92" stroke="rgba(0, 0, 0, 1)" stroke-width="1.5"></path><path d="M378.11 381.8L217.83 537.48" stroke="rgba(0, 0, 0, 1)" stroke-width="1.5"></path><path d="M378.11 381.8L656.66 363.55" stroke="rgba(0, 0, 0, 1)" stroke-width="1.5"></path><path d="M399.4 672.31L399.4 672.31" stroke="rgba(0, 0, 0, 1)" stroke-width="1.5"></path><path d="M399.4 672.31L504.24 647.43" stroke="rgba(0, 0, 0, 1)" stroke-width="1.5"></path><path d="M399.4 672.31L550.2 509.92" stroke="rgba(0, 0, 0, 1)" stroke-width="1.5"></path><path d="M399.4 672.31L217.83 537.48" stroke="rgba(0, 0, 0, 1)" stroke-width="1.5"></path><path d="M399.4 672.31L659.75 555.76" stroke="rgba(0, 0, 0, 1)" stroke-width="1.5"></path><path d="M549.99 343.96L549.99 343.96" stroke="rgba(0, 0, 0, 1)" stroke-width="1.5"></path><path d="M549.99 343.96L656.66 363.55" stroke="rgba(0, 0, 0, 1)" stroke-width="1.5"></path><path d="M549.99 343.96L550.2 509.92" stroke="rgba(0, 0, 0, 1)" stroke-width="1.5"></path><path d="M549.99 343.96L659.75 555.76" stroke="rgba(0, 0, 0, 1)" stroke-width="1.5"></path><path d="M550.2 509.92L550.2 509.92" stroke="rgba(0, 0, 0, 1)" stroke-width="1.5"></path><path d="M550.2 509.92L659.75 555.76" stroke="rgba(0, 0, 0, 1)" stroke-width="1.5"></path><path d="M550.2 509.92L504.24 647.43" stroke="rgba(0, 0, 0, 1)" stroke-width="1.5"></path><path d="M550.2 509.92L656.66 363.55" stroke="rgba(0, 0, 0, 1)" stroke-width="1.5"></path><path d="M504.24 647.43L504.24 647.43" stroke="rgba(0, 0, 0, 1)" stroke-width="1.5"></path><path d="M504.24 647.43L659.75 555.76" stroke="rgba(0, 0, 0, 1)" stroke-width="1.5"></path><path d="M656.66 363.55L656.66 363.55" stroke="rgba(0, 0, 0, 1)" stroke-width="1.5"></path><path d="M656.66 363.55L811.84 407.97" stroke="rgba(0, 0, 0, 1)" stroke-width="1.5"></path><path d="M656.66 363.55L659.75 555.76" stroke="rgba(0, 0, 0, 1)" stroke-width="1.5"></path><path d="M659.75 555.76L659.75 555.76" stroke="rgba(0, 0, 0, 1)" stroke-width="1.5"></path><path d="M659.75 555.76L699.02 685.07" stroke="rgba(0, 0, 0, 1)" stroke-width="1.5"></path><path d="M699.02 685.07L699.02 685.07" stroke="rgba(0, 0, 0, 1)" stroke-width="1.5"></path><path d="M699.02 685.07L809.5 674.2" stroke="rgba(0, 0, 0, 1)" stroke-width="1.5"></path><path d="M699.02 685.07L504.24 647.43" stroke="rgba(0, 0, 0, 1)" stroke-width="1.5"></path><path d="M699.02 685.07L857.52 526.85" stroke="rgba(0, 0, 0, 1)" stroke-width="1.5"></path><path d="M848.78 195.21L848.78 195.21" stroke="rgba(0, 0, 0, 1)" stroke-width="1.5"></path><path d="M848.78 195.21L972.81 217.74" stroke="rgba(0, 0, 0, 1)" stroke-width="1.5"></path><path d="M848.78 195.21L952.47 41.91" stroke="rgba(0, 0, 0, 1)" stroke-width="1.5"></path><path d="M848.78 195.21L953.42 379.51" stroke="rgba(0, 0, 0, 1)" stroke-width="1.5"></path><path d="M848.78 195.21L811.84 407.97" stroke="rgba(0, 0, 0, 1)" stroke-width="1.5"></path><path d="M811.84 407.97L811.84 407.97" stroke="rgba(0, 0, 0, 1)" stroke-width="1.5"></path><path d="M811.84 407.97L857.52 526.85" stroke="rgba(0, 0, 0, 1)" stroke-width="1.5"></path><path d="M811.84 407.97L953.42 379.51" stroke="rgba(0, 0, 0, 1)" stroke-width="1.5"></path><path d="M811.84 407.97L659.75 555.76" stroke="rgba(0, 0, 0, 1)" stroke-width="1.5"></path><path d="M857.52 526.85L857.52 526.85" stroke="rgba(0, 0, 0, 1)" stroke-width="1.5"></path><path d="M809.5 674.2L809.5 674.2" stroke="rgba(0, 0, 0, 1)" stroke-width="1.5"></path><path d="M809.5 674.2L857.52 526.85" stroke="rgba(0, 0, 0, 1)" stroke-width="1.5"></path><path d="M809.5 674.2L985.43 665.73" stroke="rgba(0, 0, 0, 1)" stroke-width="1.5"></path><path d="M965.36 -69.25L965.36 -69.25" stroke="rgba(0, 0, 0, 1)" stroke-width="1.5"></path><path d="M965.36 -69.25L952.47 41.91" stroke="rgba(0, 0, 0, 1)" stroke-width="1.5"></path><path d="M965.36 -69.25L1125.27 -78.11" stroke="rgba(0, 0, 0, 1)" stroke-width="1.5"></path><path d="M965.36 -69.25L972.81 217.74" stroke="rgba(0, 0, 0, 1)" stroke-width="1.5"></path><path d="M965.36 -69.25L848.78 195.21" stroke="rgba(0, 0, 0, 1)" stroke-width="1.5"></path><path d="M965.36 -69.25L1283.57 -95.85" stroke="rgba(0, 0, 0, 1)" stroke-width="1.5"></path><path d="M965.36 -69.25L1107.33 224.88" stroke="rgba(0, 0, 0, 1)" stroke-width="1.5"></path><path d="M952.47 41.91L952.47 41.91" stroke="rgba(0, 0, 0, 1)" stroke-width="1.5"></path><path d="M952.47 41.91L972.81 217.74" stroke="rgba(0, 0, 0, 1)" stroke-width="1.5"></path><path d="M952.47 41.91L1125.27 -78.11" stroke="rgba(0, 0, 0, 1)" stroke-width="1.5"></path><path d="M952.47 41.91L1107.33 224.88" stroke="rgba(0, 0, 0, 1)" stroke-width="1.5"></path><path d="M972.81 217.74L972.81 217.74" stroke="rgba(0, 0, 0, 1)" stroke-width="1.5"></path><path d="M972.81 217.74L1107.33 224.88" stroke="rgba(0, 0, 0, 1)" stroke-width="1.5"></path><path d="M972.81 217.74L953.42 379.51" stroke="rgba(0, 0, 0, 1)" stroke-width="1.5"></path><path d="M972.81 217.74L1087.53 345.2" stroke="rgba(0, 0, 0, 1)" stroke-width="1.5"></path><path d="M953.42 379.51L953.42 379.51" stroke="rgba(0, 0, 0, 1)" stroke-width="1.5"></path><path d="M953.42 379.51L1087.53 345.2" stroke="rgba(0, 0, 0, 1)" stroke-width="1.5"></path><path d="M953.42 379.51L1010.26 514.26" stroke="rgba(0, 0, 0, 1)" stroke-width="1.5"></path><path d="M953.42 379.51L857.52 526.85" stroke="rgba(0, 0, 0, 1)" stroke-width="1.5"></path><path d="M1010.26 514.26L1010.26 514.26" stroke="rgba(0, 0, 0, 1)" stroke-width="1.5"></path><path d="M1010.26 514.26L1131.97 553.68" stroke="rgba(0, 0, 0, 1)" stroke-width="1.5"></path><path d="M1010.26 514.26L857.52 526.85" stroke="rgba(0, 0, 0, 1)" stroke-width="1.5"></path><path d="M1010.26 514.26L985.43 665.73" stroke="rgba(0, 0, 0, 1)" stroke-width="1.5"></path><path d="M1010.26 514.26L1087.53 345.2" stroke="rgba(0, 0, 0, 1)" stroke-width="1.5"></path><path d="M985.43 665.73L985.43 665.73" stroke="rgba(0, 0, 0, 1)" stroke-width="1.5"></path><path d="M985.43 665.73L1142.81 686.41" stroke="rgba(0, 0, 0, 1)" stroke-width="1.5"></path><path d="M985.43 665.73L1131.97 553.68" stroke="rgba(0, 0, 0, 1)" stroke-width="1.5"></path><path d="M1125.27 -78.11L1125.27 -78.11" stroke="rgba(0, 0, 0, 1)" stroke-width="1.5"></path><path d="M1125.27 -78.11L1283.57 -95.85" stroke="rgba(0, 0, 0, 1)" stroke-width="1.5"></path><path d="M1125.27 -78.11L1280.34 54.9" stroke="rgba(0, 0, 0, 1)" stroke-width="1.5"></path><path d="M1107.33 224.88L1107.33 224.88" stroke="rgba(0, 0, 0, 1)" stroke-width="1.5"></path><path d="M1107.33 224.88L1087.53 345.2" stroke="rgba(0, 0, 0, 1)" stroke-width="1.5"></path><path d="M1107.33 224.88L1254.7 247.24" stroke="rgba(0, 0, 0, 1)" stroke-width="1.5"></path><path d="M1107.33 224.88L1238.69 393.67" stroke="rgba(0, 0, 0, 1)" stroke-width="1.5"></path><path d="M1087.53 345.2L1087.53 345.2" stroke="rgba(0, 0, 0, 1)" stroke-width="1.5"></path><path d="M1087.53 345.2L1238.69 393.67" stroke="rgba(0, 0, 0, 1)" stroke-width="1.5"></path><path d="M1131.97 553.68L1131.97 553.68" stroke="rgba(0, 0, 0, 1)" stroke-width="1.5"></path><path d="M1131.97 553.68L1142.81 686.41" stroke="rgba(0, 0, 0, 1)" stroke-width="1.5"></path><path d="M1131.97 553.68L1282.25 650.44" stroke="rgba(0, 0, 0, 1)" stroke-width="1.5"></path><path d="M1142.81 686.41L1142.81 686.41" stroke="rgba(0, 0, 0, 1)" stroke-width="1.5"></path><path d="M1142.81 686.41L1282.25 650.44" stroke="rgba(0, 0, 0, 1)" stroke-width="1.5"></path><path d="M1142.81 686.41L1010.26 514.26" stroke="rgba(0, 0, 0, 1)" stroke-width="1.5"></path><path d="M1142.81 686.41L1310.36 491.46" stroke="rgba(0, 0, 0, 1)" stroke-width="1.5"></path><path d="M1142.81 686.41L1238.69 393.67" stroke="rgba(0, 0, 0, 1)" stroke-width="1.5"></path><path d="M1283.57 -95.85L1283.57 -95.85" stroke="rgba(0, 0, 0, 1)" stroke-width="1.5"></path><path d="M1283.57 -95.85L1280.34 54.9" stroke="rgba(0, 0, 0, 1)" stroke-width="1.5"></path><path d="M1283.57 -95.85L1457.73 -37.55" stroke="rgba(0, 0, 0, 1)" stroke-width="1.5"></path><path d="M1280.34 54.9L1280.34 54.9" stroke="rgba(0, 0, 0, 1)" stroke-width="1.5"></path><path d="M1280.34 54.9L1457.82 59.03" stroke="rgba(0, 0, 0, 1)" stroke-width="1.5"></path><path d="M1280.34 54.9L1254.7 247.24" stroke="rgba(0, 0, 0, 1)" stroke-width="1.5"></path><path d="M1280.34 54.9L1457.73 -37.55" stroke="rgba(0, 0, 0, 1)" stroke-width="1.5"></path><path d="M1254.7 247.24L1254.7 247.24" stroke="rgba(0, 0, 0, 1)" stroke-width="1.5"></path><path d="M1254.7 247.24L1238.69 393.67" stroke="rgba(0, 0, 0, 1)" stroke-width="1.5"></path><path d="M1254.7 247.24L1422.31 206.49" stroke="rgba(0, 0, 0, 1)" stroke-width="1.5"></path><path d="M1238.69 393.67L1238.69 393.67" stroke="rgba(0, 0, 0, 1)" stroke-width="1.5"></path><path d="M1238.69 393.67L1310.36 491.46" stroke="rgba(0, 0, 0, 1)" stroke-width="1.5"></path><path d="M1238.69 393.67L1131.97 553.68" stroke="rgba(0, 0, 0, 1)" stroke-width="1.5"></path><path d="M1238.69 393.67L1442.78 350.66" stroke="rgba(0, 0, 0, 1)" stroke-width="1.5"></path><path d="M1238.69 393.67L1408.19 522.38" stroke="rgba(0, 0, 0, 1)" stroke-width="1.5"></path><path d="M1310.36 491.46L1310.36 491.46" stroke="rgba(0, 0, 0, 1)" stroke-width="1.5"></path><path d="M1310.36 491.46L1408.19 522.38" stroke="rgba(0, 0, 0, 1)" stroke-width="1.5"></path><path d="M1310.36 491.46L1282.25 650.44" stroke="rgba(0, 0, 0, 1)" stroke-width="1.5"></path><path d="M1310.36 491.46L1131.97 553.68" stroke="rgba(0, 0, 0, 1)" stroke-width="1.5"></path><path d="M1310.36 491.46L1442.78 350.66" stroke="rgba(0, 0, 0, 1)" stroke-width="1.5"></path><path d="M1282.25 650.44L1282.25 650.44" stroke="rgba(0, 0, 0, 1)" stroke-width="1.5"></path><path d="M1282.25 650.44L1460.27 640.61" stroke="rgba(0, 0, 0, 1)" stroke-width="1.5"></path><path d="M1282.25 650.44L1408.19 522.38" stroke="rgba(0, 0, 0, 1)" stroke-width="1.5"></path><path d="M1282.25 650.44L1238.69 393.67" stroke="rgba(0, 0, 0, 1)" stroke-width="1.5"></path><path d="M1457.73 -37.55L1457.73 -37.55" stroke="rgba(0, 0, 0, 1)" stroke-width="1.5"></path><path d="M1457.73 -37.55L1457.82 59.03" stroke="rgba(0, 0, 0, 1)" stroke-width="1.5"></path><path d="M1457.73 -37.55L1589.47 -107.97" stroke="rgba(0, 0, 0, 1)" stroke-width="1.5"></path><path d="M1457.73 -37.55L1598.23 65.89" stroke="rgba(0, 0, 0, 1)" stroke-width="1.5"></path><path d="M1457.82 59.03L1457.82 59.03" stroke="rgba(0, 0, 0, 1)" stroke-width="1.5"></path><path d="M1457.82 59.03L1598.23 65.89" stroke="rgba(0, 0, 0, 1)" stroke-width="1.5"></path><path d="M1457.82 59.03L1422.31 206.49" stroke="rgba(0, 0, 0, 1)" stroke-width="1.5"></path><path d="M1422.31 206.49L1422.31 206.49" stroke="rgba(0, 0, 0, 1)" stroke-width="1.5"></path><path d="M1422.31 206.49L1442.78 350.66" stroke="rgba(0, 0, 0, 1)" stroke-width="1.5"></path><path d="M1442.78 350.66L1442.78 350.66" stroke="rgba(0, 0, 0, 1)" stroke-width="1.5"></path><path d="M1442.78 350.66L1606.97 368.21" stroke="rgba(0, 0, 0, 1)" stroke-width="1.5"></path><path d="M1442.78 350.66L1408.19 522.38" stroke="rgba(0, 0, 0, 1)" stroke-width="1.5"></path><path d="M1408.19 522.38L1408.19 522.38" stroke="rgba(0, 0, 0, 1)" stroke-width="1.5"></path><path d="M1408.19 522.38L1460.27 640.61" stroke="rgba(0, 0, 0, 1)" stroke-width="1.5"></path><path d="M1408.19 522.38L1582.45 487.93" stroke="rgba(0, 0, 0, 1)" stroke-width="1.5"></path><path d="M1460.27 640.61L1460.27 640.61" stroke="rgba(0, 0, 0, 1)" stroke-width="1.5"></path><path d="M1460.27 640.61L1547.97 638.18" stroke="rgba(0, 0, 0, 1)" stroke-width="1.5"></path><path d="M1589.47 -107.97L1589.47 -107.97" stroke="rgba(0, 0, 0, 1)" stroke-width="1.5"></path><path d="M1589.47 -107.97L1598.23 65.89" stroke="rgba(0, 0, 0, 1)" stroke-width="1.5"></path><path d="M1589.47 -107.97L1457.82 59.03" stroke="rgba(0, 0, 0, 1)" stroke-width="1.5"></path><path d="M1589.47 -107.97L1283.57 -95.85" stroke="rgba(0, 0, 0, 1)" stroke-width="1.5"></path><path d="M1589.47 -107.97L1606.7 225.33" stroke="rgba(0, 0, 0, 1)" stroke-width="1.5"></path><path d="M1589.47 -107.97L1280.34 54.9" stroke="rgba(0, 0, 0, 1)" stroke-width="1.5"></path><path d="M1598.23 65.89L1598.23 65.89" stroke="rgba(0, 0, 0, 1)" stroke-width="1.5"></path><path d="M1598.23 65.89L1606.7 225.33" stroke="rgba(0, 0, 0, 1)" stroke-width="1.5"></path><path d="M1598.23 65.89L1422.31 206.49" stroke="rgba(0, 0, 0, 1)" stroke-width="1.5"></path><path d="M1598.23 65.89L1606.97 368.21" stroke="rgba(0, 0, 0, 1)" stroke-width="1.5"></path><path d="M1606.7 225.33L1606.7 225.33" stroke="rgba(0, 0, 0, 1)" stroke-width="1.5"></path><path d="M1606.7 225.33L1606.97 368.21" stroke="rgba(0, 0, 0, 1)" stroke-width="1.5"></path><path d="M1606.7 225.33L1422.31 206.49" stroke="rgba(0, 0, 0, 1)" stroke-width="1.5"></path><path d="M1606.97 368.21L1606.97 368.21" stroke="rgba(0, 0, 0, 1)" stroke-width="1.5"></path><path d="M1606.97 368.21L1582.45 487.93" stroke="rgba(0, 0, 0, 1)" stroke-width="1.5"></path><path d="M1582.45 487.93L1582.45 487.93" stroke="rgba(0, 0, 0, 1)" stroke-width="1.5"></path><path d="M1582.45 487.93L1547.97 638.18" stroke="rgba(0, 0, 0, 1)" stroke-width="1.5"></path><path d="M1547.97 638.18L1547.97 638.18" stroke="rgba(0, 0, 0, 1)" stroke-width="1.5"></path><path d="M1547.97 638.18L1408.19 522.38" stroke="rgba(0, 0, 0, 1)" stroke-width="1.5"></path><path d="M1547.97 638.18L1282.25 650.44" stroke="rgba(0, 0, 0, 1)" stroke-width="1.5"></path><circle r="5" cx="-42.1" cy="377.64" fill="rgba(0, 0, 0, 1)"></circle><circle r="5" cx="-44.72" cy="524.32" fill="rgba(0, 0, 0, 1)"></circle><circle r="5" cx="-51.73" cy="675.18" fill="rgba(0, 0, 0, 1)"></circle><circle r="5" cx="42.11" cy="359.41" fill="rgba(0, 0, 0, 1)"></circle><circle r="5" cx="41.22" cy="643.64" fill="rgba(0, 0, 0, 1)"></circle><circle r="5" cx="201.28" cy="359.28" fill="rgba(0, 0, 0, 1)"></circle><circle r="5" cx="217.83" cy="537.48" fill="rgba(0, 0, 0, 1)"></circle><circle r="5" cx="250.98" cy="696.38" fill="rgba(0, 0, 0, 1)"></circle><circle r="5" cx="378.11" cy="381.8" fill="rgba(0, 0, 0, 1)"></circle><circle r="5" cx="399.4" cy="672.31" fill="rgba(0, 0, 0, 1)"></circle><circle r="5" cx="549.99" cy="343.96" fill="rgba(0, 0, 0, 1)"></circle><circle r="5" cx="550.2" cy="509.92" fill="rgba(0, 0, 0, 1)"></circle><circle r="5" cx="504.24" cy="647.43" fill="rgba(0, 0, 0, 1)"></circle><circle r="5" cx="656.66" cy="363.55" fill="rgba(0, 0, 0, 1)"></circle><circle r="5" cx="659.75" cy="555.76" fill="rgba(0, 0, 0, 1)"></circle><circle r="5" cx="699.02" cy="685.07" fill="rgba(0, 0, 0, 1)"></circle><circle r="5" cx="848.78" cy="195.21" fill="rgba(0, 0, 0, 1)"></circle><circle r="5" cx="811.84" cy="407.97" fill="rgba(0, 0, 0, 1)"></circle><circle r="5" cx="857.52" cy="526.85" fill="rgba(0, 0, 0, 1)"></circle><circle r="5" cx="809.5" cy="674.2" fill="rgba(0, 0, 0, 1)"></circle><circle r="5" cx="965.36" cy="-69.25" fill="rgba(0, 0, 0, 1)"></circle><circle r="5" cx="952.47" cy="41.91" fill="rgba(0, 0, 0, 1)"></circle><circle r="5" cx="972.81" cy="217.74" fill="rgba(0, 0, 0, 1)"></circle><circle r="5" cx="953.42" cy="379.51" fill="rgba(0, 0, 0, 1)"></circle><circle r="5" cx="1010.26" cy="514.26" fill="rgba(0, 0, 0, 1)"></circle><circle r="5" cx="985.43" cy="665.73" fill="rgba(0, 0, 0, 1)"></circle><circle r="5" cx="1125.27" cy="-78.11" fill="rgba(0, 0, 0, 1)"></circle><circle r="5" cx="1107.33" cy="224.88" fill="rgba(0, 0, 0, 1)"></circle><circle r="5" cx="1087.53" cy="345.2" fill="rgba(0, 0, 0, 1)"></circle><circle r="5" cx="1131.97" cy="553.68" fill="rgba(0, 0, 0, 1)"></circle><circle r="5" cx="1142.81" cy="686.41" fill="rgba(0, 0, 0, 1)"></circle><circle r="5" cx="1283.57" cy="-95.85" fill="rgba(0, 0, 0, 1)"></circle><circle r="5" cx="1280.34" cy="54.9" fill="rgba(0, 0, 0, 1)"></circle><circle r="5" cx="1254.7" cy="247.24" fill="rgba(0, 0, 0, 1)"></circle><circle r="5" cx="1238.69" cy="393.67" fill="rgba(0, 0, 0, 1)"></circle><circle r="5" cx="1310.36" cy="491.46" fill="rgba(0, 0, 0, 1)"></circle><circle r="5" cx="1282.25" cy="650.44" fill="rgba(0, 0, 0, 1)"></circle><circle r="5" cx="1457.73" cy="-37.55" fill="rgba(0, 0, 0, 1)"></circle><circle r="5" cx="1457.82" cy="59.03" fill="rgba(0, 0, 0, 1)"></circle><circle r="5" cx="1422.31" cy="206.49" fill="rgba(0, 0, 0, 1)"></circle><circle r="5" cx="1442.78" cy="350.66" fill="rgba(0, 0, 0, 1)"></circle><circle r="5" cx="1408.19" cy="522.38" fill="rgba(0, 0, 0, 1)"></circle><circle r="5" cx="1460.27" cy="640.61" fill="rgba(0, 0, 0, 1)"></circle><circle r="5" cx="1589.47" cy="-107.97" fill="rgba(0, 0, 0, 1)"></circle><circle r="5" cx="1598.23" cy="65.89" fill="rgba(0, 0, 0, 1)"></circle><circle r="5" cx="1606.7" cy="225.33" fill="rgba(0, 0, 0, 1)"></circle><circle r="5" cx="1606.97" cy="368.21" fill="rgba(0, 0, 0, 1)"></circle><circle r="5" cx="1582.45" cy="487.93" fill="rgba(0, 0, 0, 1)"></circle><circle r="5" cx="1547.97" cy="638.18" fill="rgba(0, 0, 0, 1)"></circle><path d="M-60.03 685.63L-60.03 685.63" stroke="hsl(0, 100%, 65%)" stroke-width="1.5"></path><path d="M-60.03 685.63L92.62 689.37" stroke="hsl(0, 100%, 65%)" stroke-width="1.5"></path><path d="M-60.03 685.63L90.2 555.93" stroke="hsl(0, 100%, 65%)" stroke-width="1.5"></path><path d="M-60.03 685.63L212.09 660.56" stroke="hsl(0, 100%, 65%)" stroke-width="1.5"></path><path d="M-60.03 685.63L253.49 551.52" stroke="hsl(0, 100%, 65%)" stroke-width="1.5"></path><path d="M-60.03 685.63L355.37 523.63" stroke="hsl(0, 100%, 65%)" stroke-width="1.5"></path><path d="M-60.03 685.63L389.2 675.07" stroke="hsl(0, 100%, 65%)" stroke-width="1.5"></path><path d="M90.2 555.93L90.2 555.93" stroke="hsl(0, 100%, 65%)" stroke-width="1.5"></path><path d="M90.2 555.93L92.62 689.37" stroke="hsl(0, 100%, 65%)" stroke-width="1.5"></path><path d="M90.2 555.93L212.09 660.56" stroke="hsl(0, 100%, 65%)" stroke-width="1.5"></path><path d="M90.2 555.93L253.49 551.52" stroke="hsl(0, 100%, 65%)" stroke-width="1.5"></path><path d="M90.2 555.93L355.37 523.63" stroke="hsl(0, 100%, 65%)" stroke-width="1.5"></path><path d="M522.85 645.26L522.85 645.26" stroke="hsl(0, 100%, 65%)" stroke-width="1.5"></path><path d="M522.85 645.26L641.15 703.07" stroke="hsl(0, 100%, 65%)" stroke-width="1.5"></path><path d="M522.85 645.26L389.2 675.07" stroke="hsl(0, 100%, 65%)" stroke-width="1.5"></path><path d="M522.85 645.26L497.09 501.39" stroke="hsl(0, 100%, 65%)" stroke-width="1.5"></path><path d="M954.42 345.25L954.42 345.25" stroke="hsl(0, 100%, 65%)" stroke-width="1.5"></path><path d="M954.42 345.25L789.82 392.57" stroke="hsl(0, 100%, 65%)" stroke-width="1.5"></path><path d="M954.42 345.25L1127.6 385.36" stroke="hsl(0, 100%, 65%)" stroke-width="1.5"></path><path d="M940.32 642.05L940.32 642.05" stroke="hsl(0, 100%, 65%)" stroke-width="1.5"></path><path d="M940.32 642.05L851 561.11" stroke="hsl(0, 100%, 65%)" stroke-width="1.5"></path><path d="M940.32 642.05L1010.94 521.12" stroke="hsl(0, 100%, 65%)" stroke-width="1.5"></path><path d="M1304.8 -72.68L1304.8 -72.68" stroke="hsl(0, 100%, 65%)" stroke-width="1.5"></path><path d="M1304.8 -72.68L1413.34 -99.07" stroke="hsl(0, 100%, 65%)" stroke-width="1.5"></path><path d="M1304.8 -72.68L1291.33 41.06" stroke="hsl(0, 100%, 65%)" stroke-width="1.5"></path><path d="M1304.8 -72.68L1456.93 37.52" stroke="hsl(0, 100%, 65%)" stroke-width="1.5"></path><path d="M1304.8 -72.68L1135.14 77.5" stroke="hsl(0, 100%, 65%)" stroke-width="1.5"></path><path d="M1309.14 684.98L1309.14 684.98" stroke="hsl(0, 100%, 65%)" stroke-width="1.5"></path><path d="M1309.14 684.98L1388.87 686.8" stroke="hsl(0, 100%, 65%)" stroke-width="1.5"></path><path d="M1309.14 684.98L1133.42 706.05" stroke="hsl(0, 100%, 65%)" stroke-width="1.5"></path><path d="M1309.14 684.98L1237.88 493.46" stroke="hsl(0, 100%, 65%)" stroke-width="1.5"></path><path d="M1309.14 684.98L1153.89 496.06" stroke="hsl(0, 100%, 65%)" stroke-width="1.5"></path><path d="M1309.14 684.98L1398.71 400.65" stroke="hsl(0, 100%, 65%)" stroke-width="1.5"></path><path d="M1309.14 684.98L1606.94 669.33" stroke="hsl(0, 100%, 65%)" stroke-width="1.5"></path><path d="M92.62 689.37L92.62 689.37" stroke="hsl(0, 100%, 65%)" stroke-width="1.5"></path><path d="M92.62 689.37L212.09 660.56" stroke="hsl(0, 100%, 65%)" stroke-width="1.5"></path><path d="M92.62 689.37L253.49 551.52" stroke="hsl(0, 100%, 65%)" stroke-width="1.5"></path><path d="M253.49 551.52L253.49 551.52" stroke="hsl(0, 100%, 65%)" stroke-width="1.5"></path><path d="M253.49 551.52L355.37 523.63" stroke="hsl(0, 100%, 65%)" stroke-width="1.5"></path><path d="M253.49 551.52L212.09 660.56" stroke="hsl(0, 100%, 65%)" stroke-width="1.5"></path><path d="M212.09 660.56L212.09 660.56" stroke="hsl(0, 100%, 65%)" stroke-width="1.5"></path><path d="M355.37 523.63L355.37 523.63" stroke="hsl(0, 100%, 65%)" stroke-width="1.5"></path><path d="M355.37 523.63L497.09 501.39" stroke="hsl(0, 100%, 65%)" stroke-width="1.5"></path><path d="M355.37 523.63L389.2 675.07" stroke="hsl(0, 100%, 65%)" stroke-width="1.5"></path><path d="M389.2 675.07L389.2 675.07" stroke="hsl(0, 100%, 65%)" stroke-width="1.5"></path><path d="M389.2 675.07L212.09 660.56" stroke="hsl(0, 100%, 65%)" stroke-width="1.5"></path><path d="M389.2 675.07L253.49 551.52" stroke="hsl(0, 100%, 65%)" stroke-width="1.5"></path><path d="M497.09 501.39L497.09 501.39" stroke="hsl(0, 100%, 65%)" stroke-width="1.5"></path><path d="M497.09 501.39L667.99 510.39" stroke="hsl(0, 100%, 65%)" stroke-width="1.5"></path><path d="M497.09 501.39L389.2 675.07" stroke="hsl(0, 100%, 65%)" stroke-width="1.5"></path><path d="M497.09 501.39L641.15 703.07" stroke="hsl(0, 100%, 65%)" stroke-width="1.5"></path><path d="M497.09 501.39L253.49 551.52" stroke="hsl(0, 100%, 65%)" stroke-width="1.5"></path><path d="M667.99 510.39L667.99 510.39" stroke="hsl(0, 100%, 65%)" stroke-width="1.5"></path><path d="M667.99 510.39L789.82 392.57" stroke="hsl(0, 100%, 65%)" stroke-width="1.5"></path><path d="M667.99 510.39L851 561.11" stroke="hsl(0, 100%, 65%)" stroke-width="1.5"></path><path d="M641.15 703.07L641.15 703.07" stroke="hsl(0, 100%, 65%)" stroke-width="1.5"></path><path d="M641.15 703.07L794.86 707.28" stroke="hsl(0, 100%, 65%)" stroke-width="1.5"></path><path d="M641.15 703.07L667.99 510.39" stroke="hsl(0, 100%, 65%)" stroke-width="1.5"></path><path d="M641.15 703.07L851 561.11" stroke="hsl(0, 100%, 65%)" stroke-width="1.5"></path><path d="M641.15 703.07L389.2 675.07" stroke="hsl(0, 100%, 65%)" stroke-width="1.5"></path><path d="M789.82 392.57L789.82 392.57" stroke="hsl(0, 100%, 65%)" stroke-width="1.5"></path><path d="M789.82 392.57L851 561.11" stroke="hsl(0, 100%, 65%)" stroke-width="1.5"></path><path d="M789.82 392.57L1010.94 521.12" stroke="hsl(0, 100%, 65%)" stroke-width="1.5"></path><path d="M789.82 392.57L940.32 642.05" stroke="hsl(0, 100%, 65%)" stroke-width="1.5"></path><path d="M789.82 392.57L497.09 501.39" stroke="hsl(0, 100%, 65%)" stroke-width="1.5"></path><path d="M851 561.11L851 561.11" stroke="hsl(0, 100%, 65%)" stroke-width="1.5"></path><path d="M851 561.11L794.86 707.28" stroke="hsl(0, 100%, 65%)" stroke-width="1.5"></path><path d="M851 561.11L1010.94 521.12" stroke="hsl(0, 100%, 65%)" stroke-width="1.5"></path><path d="M851 561.11L954.42 345.25" stroke="hsl(0, 100%, 65%)" stroke-width="1.5"></path><path d="M794.86 707.28L794.86 707.28" stroke="hsl(0, 100%, 65%)" stroke-width="1.5"></path><path d="M794.86 707.28L940.32 642.05" stroke="hsl(0, 100%, 65%)" stroke-width="1.5"></path><path d="M794.86 707.28L667.99 510.39" stroke="hsl(0, 100%, 65%)" stroke-width="1.5"></path><path d="M794.86 707.28L522.85 645.26" stroke="hsl(0, 100%, 65%)" stroke-width="1.5"></path><path d="M1010.94 521.12L1010.94 521.12" stroke="hsl(0, 100%, 65%)" stroke-width="1.5"></path><path d="M1010.94 521.12L1153.89 496.06" stroke="hsl(0, 100%, 65%)" stroke-width="1.5"></path><path d="M1135.14 77.5L1135.14 77.5" stroke="hsl(0, 100%, 65%)" stroke-width="1.5"></path><path d="M1135.14 77.5L1143.06 235.88" stroke="hsl(0, 100%, 65%)" stroke-width="1.5"></path><path d="M1135.14 77.5L1291.33 41.06" stroke="hsl(0, 100%, 65%)" stroke-width="1.5"></path><path d="M1135.14 77.5L1283.15 190.06" stroke="hsl(0, 100%, 65%)" stroke-width="1.5"></path><path d="M1135.14 77.5L1127.6 385.36" stroke="hsl(0, 100%, 65%)" stroke-width="1.5"></path><path d="M1135.14 77.5L954.42 345.25" stroke="hsl(0, 100%, 65%)" stroke-width="1.5"></path><path d="M1143.06 235.88L1143.06 235.88" stroke="hsl(0, 100%, 65%)" stroke-width="1.5"></path><path d="M1143.06 235.88L1283.15 190.06" stroke="hsl(0, 100%, 65%)" stroke-width="1.5"></path><path d="M1143.06 235.88L1127.6 385.36" stroke="hsl(0, 100%, 65%)" stroke-width="1.5"></path><path d="M1127.6 385.36L1127.6 385.36" stroke="hsl(0, 100%, 65%)" stroke-width="1.5"></path><path d="M1127.6 385.36L1153.89 496.06" stroke="hsl(0, 100%, 65%)" stroke-width="1.5"></path><path d="M1127.6 385.36L1272.99 376.21" stroke="hsl(0, 100%, 65%)" stroke-width="1.5"></path><path d="M1153.89 496.06L1153.89 496.06" stroke="hsl(0, 100%, 65%)" stroke-width="1.5"></path><path d="M1153.89 496.06L1237.88 493.46" stroke="hsl(0, 100%, 65%)" stroke-width="1.5"></path><path d="M1153.89 496.06L1272.99 376.21" stroke="hsl(0, 100%, 65%)" stroke-width="1.5"></path><path d="M1133.42 706.05L1133.42 706.05" stroke="hsl(0, 100%, 65%)" stroke-width="1.5"></path><path d="M1133.42 706.05L940.32 642.05" stroke="hsl(0, 100%, 65%)" stroke-width="1.5"></path><path d="M1133.42 706.05L1153.89 496.06" stroke="hsl(0, 100%, 65%)" stroke-width="1.5"></path><path d="M1133.42 706.05L1010.94 521.12" stroke="hsl(0, 100%, 65%)" stroke-width="1.5"></path><path d="M1133.42 706.05L1237.88 493.46" stroke="hsl(0, 100%, 65%)" stroke-width="1.5"></path><path d="M1133.42 706.05L1388.87 686.8" stroke="hsl(0, 100%, 65%)" stroke-width="1.5"></path><path d="M1291.33 41.06L1291.33 41.06" stroke="hsl(0, 100%, 65%)" stroke-width="1.5"></path><path d="M1291.33 41.06L1283.15 190.06" stroke="hsl(0, 100%, 65%)" stroke-width="1.5"></path><path d="M1291.33 41.06L1456.93 37.52" stroke="hsl(0, 100%, 65%)" stroke-width="1.5"></path><path d="M1283.15 190.06L1283.15 190.06" stroke="hsl(0, 100%, 65%)" stroke-width="1.5"></path><path d="M1283.15 190.06L1412.27 259.08" stroke="hsl(0, 100%, 65%)" stroke-width="1.5"></path><path d="M1283.15 190.06L1272.99 376.21" stroke="hsl(0, 100%, 65%)" stroke-width="1.5"></path><path d="M1272.99 376.21L1272.99 376.21" stroke="hsl(0, 100%, 65%)" stroke-width="1.5"></path><path d="M1272.99 376.21L1237.88 493.46" stroke="hsl(0, 100%, 65%)" stroke-width="1.5"></path><path d="M1272.99 376.21L1398.71 400.65" stroke="hsl(0, 100%, 65%)" stroke-width="1.5"></path><path d="M1237.88 493.46L1237.88 493.46" stroke="hsl(0, 100%, 65%)" stroke-width="1.5"></path><path d="M1237.88 493.46L1127.6 385.36" stroke="hsl(0, 100%, 65%)" stroke-width="1.5"></path><path d="M1413.34 -99.07L1413.34 -99.07" stroke="hsl(0, 100%, 65%)" stroke-width="1.5"></path><path d="M1413.34 -99.07L1542.24 -101.13" stroke="hsl(0, 100%, 65%)" stroke-width="1.5"></path><path d="M1413.34 -99.07L1456.93 37.52" stroke="hsl(0, 100%, 65%)" stroke-width="1.5"></path><path d="M1413.34 -99.07L1291.33 41.06" stroke="hsl(0, 100%, 65%)" stroke-width="1.5"></path><path d="M1456.93 37.52L1456.93 37.52" stroke="hsl(0, 100%, 65%)" stroke-width="1.5"></path><path d="M1456.93 37.52L1607.47 74.64" stroke="hsl(0, 100%, 65%)" stroke-width="1.5"></path><path d="M1456.93 37.52L1542.24 -101.13" stroke="hsl(0, 100%, 65%)" stroke-width="1.5"></path><path d="M1412.27 259.08L1412.27 259.08" stroke="hsl(0, 100%, 65%)" stroke-width="1.5"></path><path d="M1412.27 259.08L1398.71 400.65" stroke="hsl(0, 100%, 65%)" stroke-width="1.5"></path><path d="M1412.27 259.08L1552.18 199.22" stroke="hsl(0, 100%, 65%)" stroke-width="1.5"></path><path d="M1398.71 400.65L1398.71 400.65" stroke="hsl(0, 100%, 65%)" stroke-width="1.5"></path><path d="M1398.71 400.65L1540.15 397.49" stroke="hsl(0, 100%, 65%)" stroke-width="1.5"></path><path d="M1388.87 686.8L1388.87 686.8" stroke="hsl(0, 100%, 65%)" stroke-width="1.5"></path><path d="M1388.87 686.8L1606.94 669.33" stroke="hsl(0, 100%, 65%)" stroke-width="1.5"></path><path d="M1388.87 686.8L1237.88 493.46" stroke="hsl(0, 100%, 65%)" stroke-width="1.5"></path><path d="M1388.87 686.8L1604.3 558.35" stroke="hsl(0, 100%, 65%)" stroke-width="1.5"></path><path d="M1542.24 -101.13L1542.24 -101.13" stroke="hsl(0, 100%, 65%)" stroke-width="1.5"></path><path d="M1542.24 -101.13L1607.47 74.64" stroke="hsl(0, 100%, 65%)" stroke-width="1.5"></path><path d="M1607.47 74.64L1607.47 74.64" stroke="hsl(0, 100%, 65%)" stroke-width="1.5"></path><path d="M1607.47 74.64L1552.18 199.22" stroke="hsl(0, 100%, 65%)" stroke-width="1.5"></path><path d="M1607.47 74.64L1413.34 -99.07" stroke="hsl(0, 100%, 65%)" stroke-width="1.5"></path><path d="M1607.47 74.64L1412.27 259.08" stroke="hsl(0, 100%, 65%)" stroke-width="1.5"></path><path d="M1607.47 74.64L1291.33 41.06" stroke="hsl(0, 100%, 65%)" stroke-width="1.5"></path><path d="M1552.18 199.22L1552.18 199.22" stroke="hsl(0, 100%, 65%)" stroke-width="1.5"></path><path d="M1552.18 199.22L1456.93 37.52" stroke="hsl(0, 100%, 65%)" stroke-width="1.5"></path><path d="M1552.18 199.22L1540.15 397.49" stroke="hsl(0, 100%, 65%)" stroke-width="1.5"></path><path d="M1552.18 199.22L1398.71 400.65" stroke="hsl(0, 100%, 65%)" stroke-width="1.5"></path><path d="M1540.15 397.49L1540.15 397.49" stroke="hsl(0, 100%, 65%)" stroke-width="1.5"></path><path d="M1540.15 397.49L1604.3 558.35" stroke="hsl(0, 100%, 65%)" stroke-width="1.5"></path><path d="M1540.15 397.49L1412.27 259.08" stroke="hsl(0, 100%, 65%)" stroke-width="1.5"></path><path d="M1540.15 397.49L1272.99 376.21" stroke="hsl(0, 100%, 65%)" stroke-width="1.5"></path><path d="M1604.3 558.35L1604.3 558.35" stroke="hsl(0, 100%, 65%)" stroke-width="1.5"></path><path d="M1604.3 558.35L1606.94 669.33" stroke="hsl(0, 100%, 65%)" stroke-width="1.5"></path><path d="M1606.94 669.33L1606.94 669.33" stroke="hsl(0, 100%, 65%)" stroke-width="1.5"></path><path d="M1606.94 669.33L1540.15 397.49" stroke="hsl(0, 100%, 65%)" stroke-width="1.5"></path><path d="M1606.94 669.33L1398.71 400.65" stroke="hsl(0, 100%, 65%)" stroke-width="1.5"></path><path d="M1606.94 669.33L1237.88 493.46" stroke="hsl(0, 100%, 65%)" stroke-width="1.5"></path><circle r="25" cx="-60.03" cy="685.63" fill="url(&quot;#SvgjsRadialGradient1161&quot;)"></circle><circle r="25" cx="90.2" cy="555.93" fill="url(&quot;#SvgjsRadialGradient1161&quot;)"></circle><circle r="25" cx="522.85" cy="645.26" fill="url(&quot;#SvgjsRadialGradient1161&quot;)"></circle><circle r="25" cx="954.42" cy="345.25" fill="url(&quot;#SvgjsRadialGradient1161&quot;)"></circle><circle r="25" cx="940.32" cy="642.05" fill="url(&quot;#SvgjsRadialGradient1161&quot;)"></circle><circle r="25" cx="1304.8" cy="-72.68" fill="url(&quot;#SvgjsRadialGradient1161&quot;)"></circle><circle r="25" cx="1309.14" cy="684.98" fill="url(&quot;#SvgjsRadialGradient1161&quot;)"></circle><circle r="5" cx="92.62" cy="689.37" fill="#ff8080"></circle><circle r="5" cx="253.49" cy="551.52" fill="#ff8080"></circle><circle r="5" cx="212.09" cy="660.56" fill="#ff8080"></circle><circle r="5" cx="355.37" cy="523.63" fill="#ff8080"></circle><circle r="5" cx="389.2" cy="675.07" fill="#ff8080"></circle><circle r="5" cx="497.09" cy="501.39" fill="#ff8080"></circle><circle r="5" cx="667.99" cy="510.39" fill="#ff8080"></circle><circle r="5" cx="641.15" cy="703.07" fill="#ff8080"></circle><circle r="5" cx="789.82" cy="392.57" fill="#ff8080"></circle><circle r="5" cx="851" cy="561.11" fill="#ff8080"></circle><circle r="5" cx="794.86" cy="707.28" fill="#ff8080"></circle><circle r="5" cx="1010.94" cy="521.12" fill="#ff8080"></circle><circle r="5" cx="1135.14" cy="77.5" fill="#ff8080"></circle><circle r="5" cx="1143.06" cy="235.88" fill="#ff8080"></circle><circle r="5" cx="1127.6" cy="385.36" fill="#ff8080"></circle><circle r="5" cx="1153.89" cy="496.06" fill="#ff8080"></circle><circle r="5" cx="1133.42" cy="706.05" fill="#ff8080"></circle><circle r="5" cx="1291.33" cy="41.06" fill="#ff8080"></circle><circle r="5" cx="1283.15" cy="190.06" fill="#ff8080"></circle><circle r="5" cx="1272.99" cy="376.21" fill="#ff8080"></circle><circle r="5" cx="1237.88" cy="493.46" fill="#ff8080"></circle><circle r="5" cx="1413.34" cy="-99.07" fill="#ff8080"></circle><circle r="5" cx="1456.93" cy="37.52" fill="#ff8080"></circle><circle r="5" cx="1412.27" cy="259.08" fill="#ff8080"></circle><circle r="5" cx="1398.71" cy="400.65" fill="#ff8080"></circle><circle r="5" cx="1388.87" cy="686.8" fill="#ff8080"></circle><circle r="5" cx="1542.24" cy="-101.13" fill="#ff8080"></circle><circle r="5" cx="1607.47" cy="74.64" fill="#ff8080"></circle><circle r="5" cx="1552.18" cy="199.22" fill="#ff8080"></circle><circle r="5" cx="1540.15" cy="397.49" fill="#ff8080"></circle><circle r="5" cx="1604.3" cy="558.35" fill="#ff8080"></circle><circle r="5" cx="1606.94" cy="669.33" fill="#ff8080"></circle></g><defs><mask id="SvgjsMask1159"><rect width="1440" height="560" fill="#ffffff"></rect></mask><linearGradient x1="0%" y1="50%" x2="100%" y2="50%" gradientUnits="userSpaceOnUse" id="SvgjsLinearGradient1160"><stop stop-color="rgba(40, 36, 36, 1)" offset="0.03"></stop><stop stop-color="rgba(118, 0, 236, 1)" offset="1"></stop></linearGradient><radialGradient id="SvgjsRadialGradient1161"><stop stop-color="#ffffff" offset="0.1"></stop><stop stop-color="rgba(255, 0, 0, 1)" offset="0.2"></stop><stop stop-color="rgba(255, 0, 0, 0)" offset="1"></stop></radialGradient></defs></svg>