<svg xmlns="http://www.w3.org/2000/svg" version="1.1" xmlns:xlink="http://www.w3.org/1999/xlink" xmlns:svgjs="http://svgjs.dev/svgjs" width="1440" height="560" preserveAspectRatio="none" viewBox="0 0 1440 560"><g mask="url(&quot;#SvgjsMask2192&quot;)" fill="none"><rect width="1440" height="560" x="0" y="0" fill="url(&quot;#SvgjsLinearGradient2193&quot;)"></rect><path d="M-43.7 368.27L-43.7 368.27" stroke="rgba(255, 0, 0, 1)" stroke-width="1.5"></path><path d="M-43.7 368.27L53.45 347.3" stroke="rgba(255, 0, 0, 1)" stroke-width="1.5"></path><path d="M-43.7 368.27L-70.09 496.25" stroke="rgba(255, 0, 0, 1)" stroke-width="1.5"></path><path d="M-70.09 496.25L-70.09 496.25" stroke="rgba(255, 0, 0, 1)" stroke-width="1.5"></path><path d="M-70.09 496.25L77.03 553.57" stroke="rgba(255, 0, 0, 1)" stroke-width="1.5"></path><path d="M-70.09 496.25L53.45 347.3" stroke="rgba(255, 0, 0, 1)" stroke-width="1.5"></path><path d="M-70.09 496.25L-90.24 708.54" stroke="rgba(255, 0, 0, 1)" stroke-width="1.5"></path><path d="M-70.09 496.25L89.8 637.96" stroke="rgba(255, 0, 0, 1)" stroke-width="1.5"></path><path d="M-90.24 708.54L-90.24 708.54" stroke="rgba(255, 0, 0, 1)" stroke-width="1.5"></path><path d="M-90.24 708.54L89.8 637.96" stroke="rgba(255, 0, 0, 1)" stroke-width="1.5"></path><path d="M-90.24 708.54L77.03 553.57" stroke="rgba(255, 0, 0, 1)" stroke-width="1.5"></path><path d="M-90.24 708.54L-43.7 368.27" stroke="rgba(255, 0, 0, 1)" stroke-width="1.5"></path><path d="M53.45 347.3L53.45 347.3" stroke="rgba(255, 0, 0, 1)" stroke-width="1.5"></path><path d="M53.45 347.3L77.03 553.57" stroke="rgba(255, 0, 0, 1)" stroke-width="1.5"></path><path d="M53.45 347.3L260.28 412.24" stroke="rgba(255, 0, 0, 1)" stroke-width="1.5"></path><path d="M53.45 347.3L249.49 505.48" stroke="rgba(255, 0, 0, 1)" stroke-width="1.5"></path><path d="M77.03 553.57L77.03 553.57" stroke="rgba(255, 0, 0, 1)" stroke-width="1.5"></path><path d="M77.03 553.57L89.8 637.96" stroke="rgba(255, 0, 0, 1)" stroke-width="1.5"></path><path d="M77.03 553.57L249.49 505.48" stroke="rgba(255, 0, 0, 1)" stroke-width="1.5"></path><path d="M77.03 553.57L-43.7 368.27" stroke="rgba(255, 0, 0, 1)" stroke-width="1.5"></path><path d="M89.8 637.96L89.8 637.96" stroke="rgba(255, 0, 0, 1)" stroke-width="1.5"></path><path d="M89.8 637.96L249.49 505.48" stroke="rgba(255, 0, 0, 1)" stroke-width="1.5"></path><path d="M89.8 637.96L344.47 698.14" stroke="rgba(255, 0, 0, 1)" stroke-width="1.5"></path><path d="M260.28 412.24L260.28 412.24" stroke="rgba(255, 0, 0, 1)" stroke-width="1.5"></path><path d="M260.28 412.24L249.49 505.48" stroke="rgba(255, 0, 0, 1)" stroke-width="1.5"></path><path d="M260.28 412.24L392.56 382.77" stroke="rgba(255, 0, 0, 1)" stroke-width="1.5"></path><path d="M249.49 505.48L249.49 505.48" stroke="rgba(255, 0, 0, 1)" stroke-width="1.5"></path><path d="M249.49 505.48L377.37 524.9" stroke="rgba(255, 0, 0, 1)" stroke-width="1.5"></path><path d="M392.56 382.77L392.56 382.77" stroke="rgba(255, 0, 0, 1)" stroke-width="1.5"></path><path d="M392.56 382.77L510.76 351.57" stroke="rgba(255, 0, 0, 1)" stroke-width="1.5"></path><path d="M377.37 524.9L377.37 524.9" stroke="rgba(255, 0, 0, 1)" stroke-width="1.5"></path><path d="M377.37 524.9L392.56 382.77" stroke="rgba(255, 0, 0, 1)" stroke-width="1.5"></path><path d="M377.37 524.9L520.78 512.47" stroke="rgba(255, 0, 0, 1)" stroke-width="1.5"></path><path d="M377.37 524.9L260.28 412.24" stroke="rgba(255, 0, 0, 1)" stroke-width="1.5"></path><path d="M377.37 524.9L344.47 698.14" stroke="rgba(255, 0, 0, 1)" stroke-width="1.5"></path><path d="M377.37 524.9L510.76 351.57" stroke="rgba(255, 0, 0, 1)" stroke-width="1.5"></path><path d="M344.47 698.14L344.47 698.14" stroke="rgba(255, 0, 0, 1)" stroke-width="1.5"></path><path d="M344.47 698.14L249.49 505.48" stroke="rgba(255, 0, 0, 1)" stroke-width="1.5"></path><path d="M344.47 698.14L520.78 512.47" stroke="rgba(255, 0, 0, 1)" stroke-width="1.5"></path><path d="M344.47 698.14L260.28 412.24" stroke="rgba(255, 0, 0, 1)" stroke-width="1.5"></path><path d="M510.76 351.57L510.76 351.57" stroke="rgba(255, 0, 0, 1)" stroke-width="1.5"></path><path d="M510.76 351.57L660.46 399.58" stroke="rgba(255, 0, 0, 1)" stroke-width="1.5"></path><path d="M510.76 351.57L520.78 512.47" stroke="rgba(255, 0, 0, 1)" stroke-width="1.5"></path><path d="M520.78 512.47L520.78 512.47" stroke="rgba(255, 0, 0, 1)" stroke-width="1.5"></path><path d="M520.78 512.47L660.46 399.58" stroke="rgba(255, 0, 0, 1)" stroke-width="1.5"></path><path d="M520.78 512.47L392.56 382.77" stroke="rgba(255, 0, 0, 1)" stroke-width="1.5"></path><path d="M668.52 262.04L668.52 262.04" stroke="rgba(255, 0, 0, 1)" stroke-width="1.5"></path><path d="M668.52 262.04L660.46 399.58" stroke="rgba(255, 0, 0, 1)" stroke-width="1.5"></path><path d="M668.52 262.04L836.99 216.27" stroke="rgba(255, 0, 0, 1)" stroke-width="1.5"></path><path d="M668.52 262.04L799.65 383.48" stroke="rgba(255, 0, 0, 1)" stroke-width="1.5"></path><path d="M668.52 262.04L510.76 351.57" stroke="rgba(255, 0, 0, 1)" stroke-width="1.5"></path><path d="M668.52 262.04L520.78 512.47" stroke="rgba(255, 0, 0, 1)" stroke-width="1.5"></path><path d="M660.46 399.58L660.46 399.58" stroke="rgba(255, 0, 0, 1)" stroke-width="1.5"></path><path d="M660.46 399.58L799.65 383.48" stroke="rgba(255, 0, 0, 1)" stroke-width="1.5"></path><path d="M697.99 562.14L697.99 562.14" stroke="rgba(255, 0, 0, 1)" stroke-width="1.5"></path><path d="M697.99 562.14L812.57 540.15" stroke="rgba(255, 0, 0, 1)" stroke-width="1.5"></path><path d="M697.99 562.14L711.9 699.78" stroke="rgba(255, 0, 0, 1)" stroke-width="1.5"></path><path d="M697.99 562.14L660.46 399.58" stroke="rgba(255, 0, 0, 1)" stroke-width="1.5"></path><path d="M697.99 562.14L819.89 679.97" stroke="rgba(255, 0, 0, 1)" stroke-width="1.5"></path><path d="M711.9 699.78L711.9 699.78" stroke="rgba(255, 0, 0, 1)" stroke-width="1.5"></path><path d="M711.9 699.78L819.89 679.97" stroke="rgba(255, 0, 0, 1)" stroke-width="1.5"></path><path d="M836.99 216.27L836.99 216.27" stroke="rgba(255, 0, 0, 1)" stroke-width="1.5"></path><path d="M836.99 216.27L948.15 107.87" stroke="rgba(255, 0, 0, 1)" stroke-width="1.5"></path><path d="M836.99 216.27L1006.18 202.55" stroke="rgba(255, 0, 0, 1)" stroke-width="1.5"></path><path d="M836.99 216.27L799.65 383.48" stroke="rgba(255, 0, 0, 1)" stroke-width="1.5"></path><path d="M799.65 383.48L799.65 383.48" stroke="rgba(255, 0, 0, 1)" stroke-width="1.5"></path><path d="M799.65 383.48L812.57 540.15" stroke="rgba(255, 0, 0, 1)" stroke-width="1.5"></path><path d="M799.65 383.48L697.99 562.14" stroke="rgba(255, 0, 0, 1)" stroke-width="1.5"></path><path d="M812.57 540.15L812.57 540.15" stroke="rgba(255, 0, 0, 1)" stroke-width="1.5"></path><path d="M812.57 540.15L819.89 679.97" stroke="rgba(255, 0, 0, 1)" stroke-width="1.5"></path><path d="M812.57 540.15L984.91 550.42" stroke="rgba(255, 0, 0, 1)" stroke-width="1.5"></path><path d="M812.57 540.15L962.66 643.34" stroke="rgba(255, 0, 0, 1)" stroke-width="1.5"></path><path d="M812.57 540.15L711.9 699.78" stroke="rgba(255, 0, 0, 1)" stroke-width="1.5"></path><path d="M819.89 679.97L819.89 679.97" stroke="rgba(255, 0, 0, 1)" stroke-width="1.5"></path><path d="M948.15 107.87L948.15 107.87" stroke="rgba(255, 0, 0, 1)" stroke-width="1.5"></path><path d="M948.15 107.87L1006.18 202.55" stroke="rgba(255, 0, 0, 1)" stroke-width="1.5"></path><path d="M948.15 107.87L1099.27 95.65" stroke="rgba(255, 0, 0, 1)" stroke-width="1.5"></path><path d="M948.15 107.87L1157.17 -63.47" stroke="rgba(255, 0, 0, 1)" stroke-width="1.5"></path><path d="M1006.18 202.55L1006.18 202.55" stroke="rgba(255, 0, 0, 1)" stroke-width="1.5"></path><path d="M1006.18 202.55L1099.27 95.65" stroke="rgba(255, 0, 0, 1)" stroke-width="1.5"></path><path d="M1006.18 202.55L1146.35 405.47" stroke="rgba(255, 0, 0, 1)" stroke-width="1.5"></path><path d="M1006.18 202.55L1255.5 94.81" stroke="rgba(255, 0, 0, 1)" stroke-width="1.5"></path><path d="M1006.18 202.55L799.65 383.48" stroke="rgba(255, 0, 0, 1)" stroke-width="1.5"></path><path d="M984.91 550.42L984.91 550.42" stroke="rgba(255, 0, 0, 1)" stroke-width="1.5"></path><path d="M984.91 550.42L962.66 643.34" stroke="rgba(255, 0, 0, 1)" stroke-width="1.5"></path><path d="M984.91 550.42L1157.2 550.41" stroke="rgba(255, 0, 0, 1)" stroke-width="1.5"></path><path d="M984.91 550.42L819.89 679.97" stroke="rgba(255, 0, 0, 1)" stroke-width="1.5"></path><path d="M984.91 550.42L1146.35 405.47" stroke="rgba(255, 0, 0, 1)" stroke-width="1.5"></path><path d="M984.91 550.42L799.65 383.48" stroke="rgba(255, 0, 0, 1)" stroke-width="1.5"></path><path d="M962.66 643.34L962.66 643.34" stroke="rgba(255, 0, 0, 1)" stroke-width="1.5"></path><path d="M962.66 643.34L819.89 679.97" stroke="rgba(255, 0, 0, 1)" stroke-width="1.5"></path><path d="M962.66 643.34L1157.2 550.41" stroke="rgba(255, 0, 0, 1)" stroke-width="1.5"></path><path d="M1157.17 -63.47L1157.17 -63.47" stroke="rgba(255, 0, 0, 1)" stroke-width="1.5"></path><path d="M1157.17 -63.47L1304.39 -57.63" stroke="rgba(255, 0, 0, 1)" stroke-width="1.5"></path><path d="M1157.17 -63.47L1099.27 95.65" stroke="rgba(255, 0, 0, 1)" stroke-width="1.5"></path><path d="M1157.17 -63.47L1255.5 94.81" stroke="rgba(255, 0, 0, 1)" stroke-width="1.5"></path><path d="M1157.17 -63.47L1410.66 -76.02" stroke="rgba(255, 0, 0, 1)" stroke-width="1.5"></path><path d="M1157.17 -63.47L1408.27 42.79" stroke="rgba(255, 0, 0, 1)" stroke-width="1.5"></path><path d="M1099.27 95.65L1099.27 95.65" stroke="rgba(255, 0, 0, 1)" stroke-width="1.5"></path><path d="M1099.27 95.65L1255.5 94.81" stroke="rgba(255, 0, 0, 1)" stroke-width="1.5"></path><path d="M1146.35 405.47L1146.35 405.47" stroke="rgba(255, 0, 0, 1)" stroke-width="1.5"></path><path d="M1146.35 405.47L1283.68 373.04" stroke="rgba(255, 0, 0, 1)" stroke-width="1.5"></path><path d="M1146.35 405.47L1157.2 550.41" stroke="rgba(255, 0, 0, 1)" stroke-width="1.5"></path><path d="M1146.35 405.47L1265.84 491.96" stroke="rgba(255, 0, 0, 1)" stroke-width="1.5"></path><path d="M1146.35 405.47L1309.21 194.57" stroke="rgba(255, 0, 0, 1)" stroke-width="1.5"></path><path d="M1157.2 550.41L1157.2 550.41" stroke="rgba(255, 0, 0, 1)" stroke-width="1.5"></path><path d="M1157.2 550.41L1265.84 491.96" stroke="rgba(255, 0, 0, 1)" stroke-width="1.5"></path><path d="M1157.2 550.41L1270.46 686.02" stroke="rgba(255, 0, 0, 1)" stroke-width="1.5"></path><path d="M1157.2 550.41L1283.68 373.04" stroke="rgba(255, 0, 0, 1)" stroke-width="1.5"></path><path d="M1304.39 -57.63L1304.39 -57.63" stroke="rgba(255, 0, 0, 1)" stroke-width="1.5"></path><path d="M1304.39 -57.63L1410.66 -76.02" stroke="rgba(255, 0, 0, 1)" stroke-width="1.5"></path><path d="M1304.39 -57.63L1408.27 42.79" stroke="rgba(255, 0, 0, 1)" stroke-width="1.5"></path><path d="M1304.39 -57.63L1255.5 94.81" stroke="rgba(255, 0, 0, 1)" stroke-width="1.5"></path><path d="M1255.5 94.81L1255.5 94.81" stroke="rgba(255, 0, 0, 1)" stroke-width="1.5"></path><path d="M1255.5 94.81L1309.21 194.57" stroke="rgba(255, 0, 0, 1)" stroke-width="1.5"></path><path d="M1255.5 94.81L1408.27 42.79" stroke="rgba(255, 0, 0, 1)" stroke-width="1.5"></path><path d="M1309.21 194.57L1309.21 194.57" stroke="rgba(255, 0, 0, 1)" stroke-width="1.5"></path><path d="M1309.21 194.57L1457.52 255.03" stroke="rgba(255, 0, 0, 1)" stroke-width="1.5"></path><path d="M1309.21 194.57L1283.68 373.04" stroke="rgba(255, 0, 0, 1)" stroke-width="1.5"></path><path d="M1309.21 194.57L1408.27 42.79" stroke="rgba(255, 0, 0, 1)" stroke-width="1.5"></path><path d="M1283.68 373.04L1283.68 373.04" stroke="rgba(255, 0, 0, 1)" stroke-width="1.5"></path><path d="M1283.68 373.04L1265.84 491.96" stroke="rgba(255, 0, 0, 1)" stroke-width="1.5"></path><path d="M1283.68 373.04L1441.53 369.08" stroke="rgba(255, 0, 0, 1)" stroke-width="1.5"></path><path d="M1283.68 373.04L1418.6 494.05" stroke="rgba(255, 0, 0, 1)" stroke-width="1.5"></path><path d="M1283.68 373.04L1457.52 255.03" stroke="rgba(255, 0, 0, 1)" stroke-width="1.5"></path><path d="M1265.84 491.96L1265.84 491.96" stroke="rgba(255, 0, 0, 1)" stroke-width="1.5"></path><path d="M1265.84 491.96L1418.6 494.05" stroke="rgba(255, 0, 0, 1)" stroke-width="1.5"></path><path d="M1265.84 491.96L1270.46 686.02" stroke="rgba(255, 0, 0, 1)" stroke-width="1.5"></path><path d="M1270.46 686.02L1270.46 686.02" stroke="rgba(255, 0, 0, 1)" stroke-width="1.5"></path><path d="M1410.66 -76.02L1410.66 -76.02" stroke="rgba(255, 0, 0, 1)" stroke-width="1.5"></path><path d="M1410.66 -76.02L1408.27 42.79" stroke="rgba(255, 0, 0, 1)" stroke-width="1.5"></path><path d="M1410.66 -76.02L1595.72 -110.34" stroke="rgba(255, 0, 0, 1)" stroke-width="1.5"></path><path d="M1410.66 -76.02L1255.5 94.81" stroke="rgba(255, 0, 0, 1)" stroke-width="1.5"></path><path d="M1408.27 42.79L1408.27 42.79" stroke="rgba(255, 0, 0, 1)" stroke-width="1.5"></path><path d="M1457.52 255.03L1457.52 255.03" stroke="rgba(255, 0, 0, 1)" stroke-width="1.5"></path><path d="M1457.52 255.03L1564 260.93" stroke="rgba(255, 0, 0, 1)" stroke-width="1.5"></path><path d="M1457.52 255.03L1441.53 369.08" stroke="rgba(255, 0, 0, 1)" stroke-width="1.5"></path><path d="M1457.52 255.03L1561.13 411.32" stroke="rgba(255, 0, 0, 1)" stroke-width="1.5"></path><path d="M1441.53 369.08L1441.53 369.08" stroke="rgba(255, 0, 0, 1)" stroke-width="1.5"></path><path d="M1441.53 369.08L1561.13 411.32" stroke="rgba(255, 0, 0, 1)" stroke-width="1.5"></path><path d="M1418.6 494.05L1418.6 494.05" stroke="rgba(255, 0, 0, 1)" stroke-width="1.5"></path><path d="M1418.6 494.05L1441.53 369.08" stroke="rgba(255, 0, 0, 1)" stroke-width="1.5"></path><path d="M1418.6 494.05L1545.05 514.46" stroke="rgba(255, 0, 0, 1)" stroke-width="1.5"></path><path d="M1460.12 643.74L1460.12 643.74" stroke="rgba(255, 0, 0, 1)" stroke-width="1.5"></path><path d="M1460.12 643.74L1545.05 514.46" stroke="rgba(255, 0, 0, 1)" stroke-width="1.5"></path><path d="M1460.12 643.74L1418.6 494.05" stroke="rgba(255, 0, 0, 1)" stroke-width="1.5"></path><path d="M1595.72 -110.34L1595.72 -110.34" stroke="rgba(255, 0, 0, 1)" stroke-width="1.5"></path><path d="M1564 260.93L1564 260.93" stroke="rgba(255, 0, 0, 1)" stroke-width="1.5"></path><path d="M1564 260.93L1561.13 411.32" stroke="rgba(255, 0, 0, 1)" stroke-width="1.5"></path><path d="M1564 260.93L1441.53 369.08" stroke="rgba(255, 0, 0, 1)" stroke-width="1.5"></path><path d="M1564 260.93L1545.05 514.46" stroke="rgba(255, 0, 0, 1)" stroke-width="1.5"></path><path d="M1564 260.93L1309.21 194.57" stroke="rgba(255, 0, 0, 1)" stroke-width="1.5"></path><path d="M1564 260.93L1408.27 42.79" stroke="rgba(255, 0, 0, 1)" stroke-width="1.5"></path><path d="M1561.13 411.32L1561.13 411.32" stroke="rgba(255, 0, 0, 1)" stroke-width="1.5"></path><path d="M1561.13 411.32L1545.05 514.46" stroke="rgba(255, 0, 0, 1)" stroke-width="1.5"></path><path d="M1561.13 411.32L1418.6 494.05" stroke="rgba(255, 0, 0, 1)" stroke-width="1.5"></path><path d="M1561.13 411.32L1460.12 643.74" stroke="rgba(255, 0, 0, 1)" stroke-width="1.5"></path><path d="M1545.05 514.46L1545.05 514.46" stroke="rgba(255, 0, 0, 1)" stroke-width="1.5"></path><circle r="5" cx="-43.7" cy="368.27" fill="rgba(255, 0, 0, 1)"></circle><circle r="5" cx="-70.09" cy="496.25" fill="rgba(255, 0, 0, 1)"></circle><circle r="5" cx="-90.24" cy="708.54" fill="rgba(255, 0, 0, 1)"></circle><circle r="5" cx="53.45" cy="347.3" fill="rgba(255, 0, 0, 1)"></circle><circle r="5" cx="77.03" cy="553.57" fill="rgba(255, 0, 0, 1)"></circle><circle r="5" cx="89.8" cy="637.96" fill="rgba(255, 0, 0, 1)"></circle><circle r="5" cx="260.28" cy="412.24" fill="rgba(255, 0, 0, 1)"></circle><circle r="5" cx="249.49" cy="505.48" fill="rgba(255, 0, 0, 1)"></circle><circle r="5" cx="392.56" cy="382.77" fill="rgba(255, 0, 0, 1)"></circle><circle r="5" cx="377.37" cy="524.9" fill="rgba(255, 0, 0, 1)"></circle><circle r="5" cx="344.47" cy="698.14" fill="rgba(255, 0, 0, 1)"></circle><circle r="5" cx="510.76" cy="351.57" fill="rgba(255, 0, 0, 1)"></circle><circle r="5" cx="520.78" cy="512.47" fill="rgba(255, 0, 0, 1)"></circle><circle r="5" cx="668.52" cy="262.04" fill="rgba(255, 0, 0, 1)"></circle><circle r="5" cx="660.46" cy="399.58" fill="rgba(255, 0, 0, 1)"></circle><circle r="5" cx="697.99" cy="562.14" fill="rgba(255, 0, 0, 1)"></circle><circle r="5" cx="711.9" cy="699.78" fill="rgba(255, 0, 0, 1)"></circle><circle r="5" cx="836.99" cy="216.27" fill="rgba(255, 0, 0, 1)"></circle><circle r="5" cx="799.65" cy="383.48" fill="rgba(255, 0, 0, 1)"></circle><circle r="5" cx="812.57" cy="540.15" fill="rgba(255, 0, 0, 1)"></circle><circle r="5" cx="819.89" cy="679.97" fill="rgba(255, 0, 0, 1)"></circle><circle r="5" cx="948.15" cy="107.87" fill="rgba(255, 0, 0, 1)"></circle><circle r="5" cx="1006.18" cy="202.55" fill="rgba(255, 0, 0, 1)"></circle><circle r="5" cx="984.91" cy="550.42" fill="rgba(255, 0, 0, 1)"></circle><circle r="5" cx="962.66" cy="643.34" fill="rgba(255, 0, 0, 1)"></circle><circle r="5" cx="1157.17" cy="-63.47" fill="rgba(255, 0, 0, 1)"></circle><circle r="5" cx="1099.27" cy="95.65" fill="rgba(255, 0, 0, 1)"></circle><circle r="5" cx="1146.35" cy="405.47" fill="rgba(255, 0, 0, 1)"></circle><circle r="5" cx="1157.2" cy="550.41" fill="rgba(255, 0, 0, 1)"></circle><circle r="5" cx="1304.39" cy="-57.63" fill="rgba(255, 0, 0, 1)"></circle><circle r="5" cx="1255.5" cy="94.81" fill="rgba(255, 0, 0, 1)"></circle><circle r="5" cx="1309.21" cy="194.57" fill="rgba(255, 0, 0, 1)"></circle><circle r="5" cx="1283.68" cy="373.04" fill="rgba(255, 0, 0, 1)"></circle><circle r="5" cx="1265.84" cy="491.96" fill="rgba(255, 0, 0, 1)"></circle><circle r="5" cx="1270.46" cy="686.02" fill="rgba(255, 0, 0, 1)"></circle><circle r="5" cx="1410.66" cy="-76.02" fill="rgba(255, 0, 0, 1)"></circle><circle r="5" cx="1408.27" cy="42.79" fill="rgba(255, 0, 0, 1)"></circle><circle r="5" cx="1457.52" cy="255.03" fill="rgba(255, 0, 0, 1)"></circle><circle r="5" cx="1441.53" cy="369.08" fill="rgba(255, 0, 0, 1)"></circle><circle r="5" cx="1418.6" cy="494.05" fill="rgba(255, 0, 0, 1)"></circle><circle r="5" cx="1460.12" cy="643.74" fill="rgba(255, 0, 0, 1)"></circle><circle r="5" cx="1595.72" cy="-110.34" fill="rgba(255, 0, 0, 1)"></circle><circle r="5" cx="1564" cy="260.93" fill="rgba(255, 0, 0, 1)"></circle><circle r="5" cx="1561.13" cy="411.32" fill="rgba(255, 0, 0, 1)"></circle><circle r="5" cx="1545.05" cy="514.46" fill="rgba(255, 0, 0, 1)"></circle><path d="M-64.65 518.8L-64.65 518.8" stroke="hsl(68.69999999999999, 100%, 65%)" stroke-width="1.5"></path><path d="M-64.65 518.8L68.93 551.76" stroke="hsl(68.69999999999999, 100%, 65%)" stroke-width="1.5"></path><path d="M37.89 655.27L37.89 655.27" stroke="hsl(68.69999999999999, 100%, 65%)" stroke-width="1.5"></path><path d="M37.89 655.27L-41.63 684.61" stroke="hsl(68.69999999999999, 100%, 65%)" stroke-width="1.5"></path><path d="M37.89 655.27L68.93 551.76" stroke="hsl(68.69999999999999, 100%, 65%)" stroke-width="1.5"></path><path d="M37.89 655.27L-64.65 518.8" stroke="hsl(68.69999999999999, 100%, 65%)" stroke-width="1.5"></path><path d="M37.89 655.27L253.31 653.61" stroke="hsl(68.69999999999999, 100%, 65%)" stroke-width="1.5"></path><path d="M243.97 550.22L243.97 550.22" stroke="hsl(68.69999999999999, 100%, 65%)" stroke-width="1.5"></path><path d="M243.97 550.22L253.31 653.61" stroke="hsl(68.69999999999999, 100%, 65%)" stroke-width="1.5"></path><path d="M243.97 550.22L368.9 641.36" stroke="hsl(68.69999999999999, 100%, 65%)" stroke-width="1.5"></path><path d="M243.97 550.22L406.59 516.16" stroke="hsl(68.69999999999999, 100%, 65%)" stroke-width="1.5"></path><path d="M406.59 516.16L406.59 516.16" stroke="hsl(68.69999999999999, 100%, 65%)" stroke-width="1.5"></path><path d="M406.59 516.16L490.27 490.13" stroke="hsl(68.69999999999999, 100%, 65%)" stroke-width="1.5"></path><path d="M406.59 516.16L368.9 641.36" stroke="hsl(68.69999999999999, 100%, 65%)" stroke-width="1.5"></path><path d="M406.59 516.16L508.04 644.67" stroke="hsl(68.69999999999999, 100%, 65%)" stroke-width="1.5"></path><path d="M823.71 344.51L823.71 344.51" stroke="hsl(68.69999999999999, 100%, 65%)" stroke-width="1.5"></path><path d="M823.71 344.51L947.52 341.62" stroke="hsl(68.69999999999999, 100%, 65%)" stroke-width="1.5"></path><path d="M823.71 344.51L689.62 381.4" stroke="hsl(68.69999999999999, 100%, 65%)" stroke-width="1.5"></path><path d="M823.71 344.51L811.91 501.94" stroke="hsl(68.69999999999999, 100%, 65%)" stroke-width="1.5"></path><path d="M990.78 509.6L990.78 509.6" stroke="hsl(68.69999999999999, 100%, 65%)" stroke-width="1.5"></path><path d="M990.78 509.6L1113.47 532.16" stroke="hsl(68.69999999999999, 100%, 65%)" stroke-width="1.5"></path><path d="M990.78 509.6L1004.37 644.7" stroke="hsl(68.69999999999999, 100%, 65%)" stroke-width="1.5"></path><path d="M1004.37 644.7L1004.37 644.7" stroke="hsl(68.69999999999999, 100%, 65%)" stroke-width="1.5"></path><path d="M1004.37 644.7L1146.27 658.19" stroke="hsl(68.69999999999999, 100%, 65%)" stroke-width="1.5"></path><path d="M1004.37 644.7L1113.47 532.16" stroke="hsl(68.69999999999999, 100%, 65%)" stroke-width="1.5"></path><path d="M1004.37 644.7L791.35 696.21" stroke="hsl(68.69999999999999, 100%, 65%)" stroke-width="1.5"></path><path d="M1004.37 644.7L811.91 501.94" stroke="hsl(68.69999999999999, 100%, 65%)" stroke-width="1.5"></path><path d="M1091.91 396.03L1091.91 396.03" stroke="hsl(68.69999999999999, 100%, 65%)" stroke-width="1.5"></path><path d="M1091.91 396.03L1113.47 532.16" stroke="hsl(68.69999999999999, 100%, 65%)" stroke-width="1.5"></path><path d="M1091.91 396.03L990.78 509.6" stroke="hsl(68.69999999999999, 100%, 65%)" stroke-width="1.5"></path><path d="M1091.91 396.03L947.52 341.62" stroke="hsl(68.69999999999999, 100%, 65%)" stroke-width="1.5"></path><path d="M1294.02 357.45L1294.02 357.45" stroke="hsl(68.69999999999999, 100%, 65%)" stroke-width="1.5"></path><path d="M1294.02 357.45L1397.79 348.99" stroke="hsl(68.69999999999999, 100%, 65%)" stroke-width="1.5"></path><path d="M1294.02 357.45L1292.23 488.23" stroke="hsl(68.69999999999999, 100%, 65%)" stroke-width="1.5"></path><path d="M1294.02 357.45L1393.99 514.57" stroke="hsl(68.69999999999999, 100%, 65%)" stroke-width="1.5"></path><path d="M1294.02 357.45L1415.08 194.93" stroke="hsl(68.69999999999999, 100%, 65%)" stroke-width="1.5"></path><path d="M1292.23 488.23L1292.23 488.23" stroke="hsl(68.69999999999999, 100%, 65%)" stroke-width="1.5"></path><path d="M1292.23 488.23L1393.99 514.57" stroke="hsl(68.69999999999999, 100%, 65%)" stroke-width="1.5"></path><path d="M1292.23 488.23L1397.79 348.99" stroke="hsl(68.69999999999999, 100%, 65%)" stroke-width="1.5"></path><path d="M1292.23 488.23L1113.47 532.16" stroke="hsl(68.69999999999999, 100%, 65%)" stroke-width="1.5"></path><path d="M1422.7 684.19L1422.7 684.19" stroke="hsl(68.69999999999999, 100%, 65%)" stroke-width="1.5"></path><path d="M1422.7 684.19L1557.42 655.98" stroke="hsl(68.69999999999999, 100%, 65%)" stroke-width="1.5"></path><path d="M-41.63 684.61L-41.63 684.61" stroke="hsl(68.69999999999999, 100%, 65%)" stroke-width="1.5"></path><path d="M-41.63 684.61L-64.65 518.8" stroke="hsl(68.69999999999999, 100%, 65%)" stroke-width="1.5"></path><path d="M-41.63 684.61L68.93 551.76" stroke="hsl(68.69999999999999, 100%, 65%)" stroke-width="1.5"></path><path d="M-41.63 684.61L253.31 653.61" stroke="hsl(68.69999999999999, 100%, 65%)" stroke-width="1.5"></path><path d="M-41.63 684.61L243.97 550.22" stroke="hsl(68.69999999999999, 100%, 65%)" stroke-width="1.5"></path><path d="M-41.63 684.61L368.9 641.36" stroke="hsl(68.69999999999999, 100%, 65%)" stroke-width="1.5"></path><path d="M68.93 551.76L68.93 551.76" stroke="hsl(68.69999999999999, 100%, 65%)" stroke-width="1.5"></path><path d="M68.93 551.76L243.97 550.22" stroke="hsl(68.69999999999999, 100%, 65%)" stroke-width="1.5"></path><path d="M68.93 551.76L253.31 653.61" stroke="hsl(68.69999999999999, 100%, 65%)" stroke-width="1.5"></path><path d="M253.31 653.61L253.31 653.61" stroke="hsl(68.69999999999999, 100%, 65%)" stroke-width="1.5"></path><path d="M253.31 653.61L368.9 641.36" stroke="hsl(68.69999999999999, 100%, 65%)" stroke-width="1.5"></path><path d="M253.31 653.61L406.59 516.16" stroke="hsl(68.69999999999999, 100%, 65%)" stroke-width="1.5"></path><path d="M368.9 641.36L368.9 641.36" stroke="hsl(68.69999999999999, 100%, 65%)" stroke-width="1.5"></path><path d="M368.9 641.36L508.04 644.67" stroke="hsl(68.69999999999999, 100%, 65%)" stroke-width="1.5"></path><path d="M490.27 490.13L490.27 490.13" stroke="hsl(68.69999999999999, 100%, 65%)" stroke-width="1.5"></path><path d="M508.04 644.67L508.04 644.67" stroke="hsl(68.69999999999999, 100%, 65%)" stroke-width="1.5"></path><path d="M508.04 644.67L490.27 490.13" stroke="hsl(68.69999999999999, 100%, 65%)" stroke-width="1.5"></path><path d="M508.04 644.67L698.84 679.98" stroke="hsl(68.69999999999999, 100%, 65%)" stroke-width="1.5"></path><path d="M508.04 644.67L677.94 526.96" stroke="hsl(68.69999999999999, 100%, 65%)" stroke-width="1.5"></path><path d="M508.04 644.67L253.31 653.61" stroke="hsl(68.69999999999999, 100%, 65%)" stroke-width="1.5"></path><path d="M689.62 381.4L689.62 381.4" stroke="hsl(68.69999999999999, 100%, 65%)" stroke-width="1.5"></path><path d="M689.62 381.4L677.94 526.96" stroke="hsl(68.69999999999999, 100%, 65%)" stroke-width="1.5"></path><path d="M689.62 381.4L811.91 501.94" stroke="hsl(68.69999999999999, 100%, 65%)" stroke-width="1.5"></path><path d="M677.94 526.96L677.94 526.96" stroke="hsl(68.69999999999999, 100%, 65%)" stroke-width="1.5"></path><path d="M677.94 526.96L811.91 501.94" stroke="hsl(68.69999999999999, 100%, 65%)" stroke-width="1.5"></path><path d="M677.94 526.96L698.84 679.98" stroke="hsl(68.69999999999999, 100%, 65%)" stroke-width="1.5"></path><path d="M677.94 526.96L490.27 490.13" stroke="hsl(68.69999999999999, 100%, 65%)" stroke-width="1.5"></path><path d="M677.94 526.96L791.35 696.21" stroke="hsl(68.69999999999999, 100%, 65%)" stroke-width="1.5"></path><path d="M698.84 679.98L698.84 679.98" stroke="hsl(68.69999999999999, 100%, 65%)" stroke-width="1.5"></path><path d="M698.84 679.98L791.35 696.21" stroke="hsl(68.69999999999999, 100%, 65%)" stroke-width="1.5"></path><path d="M698.84 679.98L811.91 501.94" stroke="hsl(68.69999999999999, 100%, 65%)" stroke-width="1.5"></path><path d="M698.84 679.98L490.27 490.13" stroke="hsl(68.69999999999999, 100%, 65%)" stroke-width="1.5"></path><path d="M811.91 501.94L811.91 501.94" stroke="hsl(68.69999999999999, 100%, 65%)" stroke-width="1.5"></path><path d="M811.91 501.94L990.78 509.6" stroke="hsl(68.69999999999999, 100%, 65%)" stroke-width="1.5"></path><path d="M791.35 696.21L791.35 696.21" stroke="hsl(68.69999999999999, 100%, 65%)" stroke-width="1.5"></path><path d="M791.35 696.21L811.91 501.94" stroke="hsl(68.69999999999999, 100%, 65%)" stroke-width="1.5"></path><path d="M947.52 341.62L947.52 341.62" stroke="hsl(68.69999999999999, 100%, 65%)" stroke-width="1.5"></path><path d="M947.52 341.62L990.78 509.6" stroke="hsl(68.69999999999999, 100%, 65%)" stroke-width="1.5"></path><path d="M1161.34 -83.52L1161.34 -83.52" stroke="hsl(68.69999999999999, 100%, 65%)" stroke-width="1.5"></path><path d="M1161.34 -83.52L1256.66 -109.86" stroke="hsl(68.69999999999999, 100%, 65%)" stroke-width="1.5"></path><path d="M1161.34 -83.52L1283.97 68.22" stroke="hsl(68.69999999999999, 100%, 65%)" stroke-width="1.5"></path><path d="M1161.34 -83.52L1098.52 188.06" stroke="hsl(68.69999999999999, 100%, 65%)" stroke-width="1.5"></path><path d="M1161.34 -83.52L1443.51 -67.24" stroke="hsl(68.69999999999999, 100%, 65%)" stroke-width="1.5"></path><path d="M1098.52 188.06L1098.52 188.06" stroke="hsl(68.69999999999999, 100%, 65%)" stroke-width="1.5"></path><path d="M1098.52 188.06L1091.91 396.03" stroke="hsl(68.69999999999999, 100%, 65%)" stroke-width="1.5"></path><path d="M1098.52 188.06L947.52 341.62" stroke="hsl(68.69999999999999, 100%, 65%)" stroke-width="1.5"></path><path d="M1098.52 188.06L1283.97 68.22" stroke="hsl(68.69999999999999, 100%, 65%)" stroke-width="1.5"></path><path d="M1098.52 188.06L1294.02 357.45" stroke="hsl(68.69999999999999, 100%, 65%)" stroke-width="1.5"></path><path d="M1113.47 532.16L1113.47 532.16" stroke="hsl(68.69999999999999, 100%, 65%)" stroke-width="1.5"></path><path d="M1113.47 532.16L1146.27 658.19" stroke="hsl(68.69999999999999, 100%, 65%)" stroke-width="1.5"></path><path d="M1146.27 658.19L1146.27 658.19" stroke="hsl(68.69999999999999, 100%, 65%)" stroke-width="1.5"></path><path d="M1146.27 658.19L1283.85 690.16" stroke="hsl(68.69999999999999, 100%, 65%)" stroke-width="1.5"></path><path d="M1146.27 658.19L990.78 509.6" stroke="hsl(68.69999999999999, 100%, 65%)" stroke-width="1.5"></path><path d="M1256.66 -109.86L1256.66 -109.86" stroke="hsl(68.69999999999999, 100%, 65%)" stroke-width="1.5"></path><path d="M1256.66 -109.86L1283.97 68.22" stroke="hsl(68.69999999999999, 100%, 65%)" stroke-width="1.5"></path><path d="M1283.97 68.22L1283.97 68.22" stroke="hsl(68.69999999999999, 100%, 65%)" stroke-width="1.5"></path><path d="M1283.97 68.22L1449.33 64.47" stroke="hsl(68.69999999999999, 100%, 65%)" stroke-width="1.5"></path><path d="M1283.97 68.22L1415.08 194.93" stroke="hsl(68.69999999999999, 100%, 65%)" stroke-width="1.5"></path><path d="M1283.85 690.16L1283.85 690.16" stroke="hsl(68.69999999999999, 100%, 65%)" stroke-width="1.5"></path><path d="M1283.85 690.16L1422.7 684.19" stroke="hsl(68.69999999999999, 100%, 65%)" stroke-width="1.5"></path><path d="M1283.85 690.16L1292.23 488.23" stroke="hsl(68.69999999999999, 100%, 65%)" stroke-width="1.5"></path><path d="M1283.85 690.16L1393.99 514.57" stroke="hsl(68.69999999999999, 100%, 65%)" stroke-width="1.5"></path><path d="M1443.51 -67.24L1443.51 -67.24" stroke="hsl(68.69999999999999, 100%, 65%)" stroke-width="1.5"></path><path d="M1443.51 -67.24L1449.33 64.47" stroke="hsl(68.69999999999999, 100%, 65%)" stroke-width="1.5"></path><path d="M1443.51 -67.24L1577.65 -97.53" stroke="hsl(68.69999999999999, 100%, 65%)" stroke-width="1.5"></path><path d="M1443.51 -67.24L1256.66 -109.86" stroke="hsl(68.69999999999999, 100%, 65%)" stroke-width="1.5"></path><path d="M1443.51 -67.24L1608.76 55.59" stroke="hsl(68.69999999999999, 100%, 65%)" stroke-width="1.5"></path><path d="M1443.51 -67.24L1283.97 68.22" stroke="hsl(68.69999999999999, 100%, 65%)" stroke-width="1.5"></path><path d="M1449.33 64.47L1449.33 64.47" stroke="hsl(68.69999999999999, 100%, 65%)" stroke-width="1.5"></path><path d="M1449.33 64.47L1415.08 194.93" stroke="hsl(68.69999999999999, 100%, 65%)" stroke-width="1.5"></path><path d="M1415.08 194.93L1415.08 194.93" stroke="hsl(68.69999999999999, 100%, 65%)" stroke-width="1.5"></path><path d="M1415.08 194.93L1397.79 348.99" stroke="hsl(68.69999999999999, 100%, 65%)" stroke-width="1.5"></path><path d="M1415.08 194.93L1582.4 223.72" stroke="hsl(68.69999999999999, 100%, 65%)" stroke-width="1.5"></path><path d="M1397.79 348.99L1397.79 348.99" stroke="hsl(68.69999999999999, 100%, 65%)" stroke-width="1.5"></path><path d="M1397.79 348.99L1563 357.69" stroke="hsl(68.69999999999999, 100%, 65%)" stroke-width="1.5"></path><path d="M1397.79 348.99L1393.99 514.57" stroke="hsl(68.69999999999999, 100%, 65%)" stroke-width="1.5"></path><path d="M1397.79 348.99L1582.4 223.72" stroke="hsl(68.69999999999999, 100%, 65%)" stroke-width="1.5"></path><path d="M1393.99 514.57L1393.99 514.57" stroke="hsl(68.69999999999999, 100%, 65%)" stroke-width="1.5"></path><path d="M1393.99 514.57L1422.7 684.19" stroke="hsl(68.69999999999999, 100%, 65%)" stroke-width="1.5"></path><path d="M1393.99 514.57L1557.42 655.98" stroke="hsl(68.69999999999999, 100%, 65%)" stroke-width="1.5"></path><path d="M1577.65 -97.53L1577.65 -97.53" stroke="hsl(68.69999999999999, 100%, 65%)" stroke-width="1.5"></path><path d="M1608.76 55.59L1608.76 55.59" stroke="hsl(68.69999999999999, 100%, 65%)" stroke-width="1.5"></path><path d="M1608.76 55.59L1577.65 -97.53" stroke="hsl(68.69999999999999, 100%, 65%)" stroke-width="1.5"></path><path d="M1608.76 55.59L1449.33 64.47" stroke="hsl(68.69999999999999, 100%, 65%)" stroke-width="1.5"></path><path d="M1608.76 55.59L1582.4 223.72" stroke="hsl(68.69999999999999, 100%, 65%)" stroke-width="1.5"></path><path d="M1608.76 55.59L1415.08 194.93" stroke="hsl(68.69999999999999, 100%, 65%)" stroke-width="1.5"></path><path d="M1608.76 55.59L1563 357.69" stroke="hsl(68.69999999999999, 100%, 65%)" stroke-width="1.5"></path><path d="M1582.4 223.72L1582.4 223.72" stroke="hsl(68.69999999999999, 100%, 65%)" stroke-width="1.5"></path><path d="M1582.4 223.72L1563 357.69" stroke="hsl(68.69999999999999, 100%, 65%)" stroke-width="1.5"></path><path d="M1582.4 223.72L1449.33 64.47" stroke="hsl(68.69999999999999, 100%, 65%)" stroke-width="1.5"></path><path d="M1563 357.69L1563 357.69" stroke="hsl(68.69999999999999, 100%, 65%)" stroke-width="1.5"></path><path d="M1563 357.69L1610.96 553.71" stroke="hsl(68.69999999999999, 100%, 65%)" stroke-width="1.5"></path><path d="M1563 357.69L1415.08 194.93" stroke="hsl(68.69999999999999, 100%, 65%)" stroke-width="1.5"></path><path d="M1610.96 553.71L1610.96 553.71" stroke="hsl(68.69999999999999, 100%, 65%)" stroke-width="1.5"></path><path d="M1610.96 553.71L1557.42 655.98" stroke="hsl(68.69999999999999, 100%, 65%)" stroke-width="1.5"></path><path d="M1610.96 553.71L1393.99 514.57" stroke="hsl(68.69999999999999, 100%, 65%)" stroke-width="1.5"></path><path d="M1610.96 553.71L1422.7 684.19" stroke="hsl(68.69999999999999, 100%, 65%)" stroke-width="1.5"></path><path d="M1610.96 553.71L1397.79 348.99" stroke="hsl(68.69999999999999, 100%, 65%)" stroke-width="1.5"></path><path d="M1610.96 553.71L1292.23 488.23" stroke="hsl(68.69999999999999, 100%, 65%)" stroke-width="1.5"></path><path d="M1557.42 655.98L1557.42 655.98" stroke="hsl(68.69999999999999, 100%, 65%)" stroke-width="1.5"></path><circle r="25" cx="-64.65" cy="518.8" fill="url(&quot;#SvgjsRadialGradient2194&quot;)"></circle><circle r="25" cx="37.89" cy="655.27" fill="url(&quot;#SvgjsRadialGradient2194&quot;)"></circle><circle r="25" cx="243.97" cy="550.22" fill="url(&quot;#SvgjsRadialGradient2194&quot;)"></circle><circle r="25" cx="406.59" cy="516.16" fill="url(&quot;#SvgjsRadialGradient2194&quot;)"></circle><circle r="25" cx="823.71" cy="344.51" fill="url(&quot;#SvgjsRadialGradient2194&quot;)"></circle><circle r="25" cx="990.78" cy="509.6" fill="url(&quot;#SvgjsRadialGradient2194&quot;)"></circle><circle r="25" cx="1004.37" cy="644.7" fill="url(&quot;#SvgjsRadialGradient2194&quot;)"></circle><circle r="25" cx="1091.91" cy="396.03" fill="url(&quot;#SvgjsRadialGradient2194&quot;)"></circle><circle r="25" cx="1294.02" cy="357.45" fill="url(&quot;#SvgjsRadialGradient2194&quot;)"></circle><circle r="25" cx="1292.23" cy="488.23" fill="url(&quot;#SvgjsRadialGradient2194&quot;)"></circle><circle r="25" cx="1422.7" cy="684.19" fill="url(&quot;#SvgjsRadialGradient2194&quot;)"></circle><circle r="5" cx="-41.63" cy="684.61" fill="#edff80"></circle><circle r="5" cx="68.93" cy="551.76" fill="#edff80"></circle><circle r="5" cx="253.31" cy="653.61" fill="#edff80"></circle><circle r="5" cx="368.9" cy="641.36" fill="#edff80"></circle><circle r="5" cx="490.27" cy="490.13" fill="#edff80"></circle><circle r="5" cx="508.04" cy="644.67" fill="#edff80"></circle><circle r="5" cx="689.62" cy="381.4" fill="#edff80"></circle><circle r="5" cx="677.94" cy="526.96" fill="#edff80"></circle><circle r="5" cx="698.84" cy="679.98" fill="#edff80"></circle><circle r="5" cx="811.91" cy="501.94" fill="#edff80"></circle><circle r="5" cx="791.35" cy="696.21" fill="#edff80"></circle><circle r="5" cx="947.52" cy="341.62" fill="#edff80"></circle><circle r="5" cx="1161.34" cy="-83.52" fill="#edff80"></circle><circle r="5" cx="1098.52" cy="188.06" fill="#edff80"></circle><circle r="5" cx="1113.47" cy="532.16" fill="#edff80"></circle><circle r="5" cx="1146.27" cy="658.19" fill="#edff80"></circle><circle r="5" cx="1256.66" cy="-109.86" fill="#edff80"></circle><circle r="5" cx="1283.97" cy="68.22" fill="#edff80"></circle><circle r="5" cx="1283.85" cy="690.16" fill="#edff80"></circle><circle r="5" cx="1443.51" cy="-67.24" fill="#edff80"></circle><circle r="5" cx="1449.33" cy="64.47" fill="#edff80"></circle><circle r="5" cx="1415.08" cy="194.93" fill="#edff80"></circle><circle r="5" cx="1397.79" cy="348.99" fill="#edff80"></circle><circle r="5" cx="1393.99" cy="514.57" fill="#edff80"></circle><circle r="5" cx="1577.65" cy="-97.53" fill="#edff80"></circle><circle r="5" cx="1608.76" cy="55.59" fill="#edff80"></circle><circle r="5" cx="1582.4" cy="223.72" fill="#edff80"></circle><circle r="5" cx="1563" cy="357.69" fill="#edff80"></circle><circle r="5" cx="1610.96" cy="553.71" fill="#edff80"></circle><circle r="5" cx="1557.42" cy="655.98" fill="#edff80"></circle></g><defs><mask id="SvgjsMask2192"><rect width="1440" height="560" fill="#ffffff"></rect></mask><linearGradient x1="0%" y1="50%" x2="100%" y2="50%" gradientUnits="userSpaceOnUse" id="SvgjsLinearGradient2193"><stop stop-color="rgba(0, 0, 0, 1)" offset="0.03"></stop><stop stop-color="rgba(255, 195, 195, 1)" offset="1"></stop></linearGradient><radialGradient id="SvgjsRadialGradient2194"><stop stop-color="#ffffff" offset="0.1"></stop><stop stop-color="rgba(218, 255, 0, 1)" offset="0.2"></stop><stop stop-color="rgba(218, 255, 0, 0)" offset="1"></stop></radialGradient></defs></svg>